<svg xmlns="http://www.w3.org/2000/svg" xmlns:xlink="http://www.w3.org/1999/xlink" width="32" height="32" viewBox="0 0 32 32">
  <defs>
    <path id="white-a" d="M2.248384,11.6596904 C2.16610196,11.7078568 2.09899681,11.7801998 2.05530153,11.8678438 C1.93134583,12.1164739 2.02277821,12.4235599 2.25952146,12.5537394 L15.2317878,19.6868832 C15.3729801,19.7645216 15.5415215,19.7641617 15.6824122,19.6859211 L26.3424666,13.7660843 C26.5515556,13.6499711 26.7844939,13.589274 27.0210148,13.589274 C27.8227077,13.589274 28.4726082,14.2718062 28.4726082,15.1137522 L28.4726082,22.4920654 C28.4726082,22.7727141 28.6892417,23.0002248 28.9564726,23.0002248 L29.5161355,23.0002248 C29.7833665,23.0002248 30,22.7727141 30,22.4920654 L30,12.7288658 C30,12.5444947 29.9049107,12.3745872 29.7515292,12.2848931 L15.6940892,4.06441149 C15.5476733,3.97879067 15.3694966,3.97883171 15.2231164,4.06451998 L2.248384,11.6596904 Z M1.74675365,10.7759708 L14.7493745,3.19258619 C15.1894589,2.93592028 15.7251379,2.93579734 16.1653299,3.19226123 L30.2529855,11.3999866 C30.714119,11.6686514 31,12.177583 31,12.729838 L31,22.4778874 C31,23.318527 30.3487026,24 29.5452865,24 L28.9844207,24 C28.1810046,24 27.5297072,23.318527 27.5297072,22.4778874 L27.5297072,15.1110236 C27.5297072,14.8308104 27.3126081,14.6036527 27.0448027,14.6036527 C26.9657929,14.6036527 26.8879799,14.6238537 26.8181338,14.662498 L16.1351662,20.5731487 C15.7115858,20.8075064 15.2048749,20.8085842 14.7803873,20.5760306 L1.78023787,13.4539557 C1.0684815,13.0640231 0.793594775,12.1441948 1.16626118,11.3994617 C1.29762879,11.1369379 1.49937697,10.9202457 1.74675365,10.7759708 Z M6,19.4941038 L6,22.6757884 C6,22.8554924 6.09293002,23.0210222 6.24266544,23.1080316 L14.5550134,27.9382326 C14.6937984,28.0188788 14.8619403,28.0206565 15.0022435,27.9429609 L23.7490006,23.0992751 C23.903379,23.0137851 24,22.8455751 24,22.6623036 L24,19.4941038 C24,19.2212693 23.7893735,19.0000933 23.5295525,19.0000933 C23.4507787,19.0000933 23.3732658,19.0208646 23.3041246,19.0605019 L15.6762839,23.4333903 C15.2547889,23.6750249 14.7452111,23.6750249 14.3237161,23.4333903 L6.69587542,19.0605019 C6.46782591,18.9297657 6.18202773,19.0179133 6.05752731,19.257385 C6.01978062,19.3299893 6,19.4113844 6,19.4941038 Z M5,19.4855217 C5,19.2368261 5.05969468,18.9921117 5.17360804,18.7738272 C5.54933001,18.0538561 6.41182232,17.7888408 7.10003855,18.1818989 L14.7732317,22.5642576 C14.9145654,22.6449769 15.0854346,22.6449769 15.2267683,22.5642576 L22.8999615,18.1818989 C23.1086185,18.0627295 23.3425395,18.0002804 23.5802663,18.0002804 C24.3643636,18.0002804 25,18.6652456 25,19.4855217 L25,22.6605829 C25,23.2115879 24.7084137,23.7173109 24.2425248,23.9743364 L15.4437625,28.8285121 C15.0203504,29.0621037 14.5129255,29.0567592 14.094095,28.8142965 L5.73232472,23.9736347 C5.28044765,23.7120413 5,23.2143764 5,22.6740969 L5,19.4855217 Z"/>
  </defs>
  <use fill="#FFF" fill-rule="evenodd" xlink:href="#white-a"/>
</svg>
